# xmcd
#
# Track frame offsets: 
#        150
#        19035
#        36078
#        54020
#        75120
#        86680
#        99347
#        118432
#        134112
#        150555
#
# Disc length: 2165 seconds
#
# Revision: 0
# Processed by: cddbd v1.5.2PL0 Copyright (c) Steve Scherf et al.
# Submitted via: ExactAudioCopy v0.95b3
#
DISCID=7108730a
DTITLE=Motley Crue  - Theatre of Pain  FLAC
DYEAR=1900
DGENRE=
TTITLE0=Motly Crue  - City Boy Blues
TTITLE1=Motly Crue  - Fight For Your Rights
TTITLE2=Motly Crue  - Home Sweet Home
TTITLE3=Motly Crue  - Keep Your Eye On The Money
TTITLE4=Motly Crue  - Louder Than Hell
TTITLE5=Motly Crue  - Raise Your Hands To Rock
TTITLE6=Motly Crue  - Save Your Souls
TTITLE7=Motly Crue  - Smokin' In The Boys Room
TTITLE8=Motly Crue  - Tonight (We Need A Lover)
TTITLE9=Motly Crue  - Use It Or Lose It
EXTD=
EXTT0=
EXTT1=
EXTT2=
EXTT3=
EXTT4=
EXTT5=
EXTT6=
EXTT7=
EXTT8=
EXTT9=
PLAYORDER=
